<?xml version="1.0" encoding="UTF-8"?>
<svg version="1.1" xmlns="http://www.w3.org/2000/svg" width="500" height="500">
<path d="M0 0 C2.38098762 2.13817762 4.72462058 4.31132019 7.06640625 6.4921875 C8.41646789 7.66360204 9.77048139 8.8304817 11.12890625 9.9921875 C19.30467088 17.15008585 26.32403632 24.98659911 33.06640625 33.4921875 C33.94046748 34.56456793 34.81549915 35.63615798 35.69140625 36.70703125 C61.72165356 68.80339311 78.41334549 106.96507794 86.06640625 147.4921875 C86.23011719 148.31219238 86.39382813 149.13219727 86.5625 149.97705078 C91.85669079 177.49262295 91.74199609 210.05762025 86.06640625 237.4921875 C85.86772949 238.46994141 85.66905273 239.44769531 85.46435547 240.45507812 C77.35107371 279.22866434 61.79653467 315.37570723 37.06640625 346.4921875 C36.36257813 347.38808594 35.65875 348.28398437 34.93359375 349.20703125 C-7.14551944 401.76821744 -67.48263293 433.93531477 -134.16894531 442.02270508 C-138.92285994 442.54017812 -143.63875314 442.68648233 -148.41796875 442.73046875 C-149.74609085 442.74522751 -149.74609085 442.74522751 -151.1010437 442.76028442 C-204.29862534 443.22887048 -255.40469853 432.02802989 -299.93359375 401.4921875 C-300.54235352 401.07727051 -301.15111328 400.66235352 -301.77832031 400.23486328 C-314.73809233 391.34083504 -326.53785043 381.2958939 -337.93359375 370.4921875 C-339.06474609 369.42484375 -339.06474609 369.42484375 -340.21875 368.3359375 C-345.60768051 363.10771068 -350.26561685 357.36309524 -354.93359375 351.4921875 C-355.80914299 350.41865639 -356.68546792 349.34575753 -357.5625 348.2734375 C-364.72047585 339.44526728 -371.02874082 330.20012936 -376.93359375 320.4921875 C-377.36027344 319.7914209 -377.78695312 319.0906543 -378.2265625 318.36865234 C-392.16838705 295.14478999 -401.11488563 269.53259616 -406.74609375 243.1171875 C-406.94114502 242.20388672 -407.13619629 241.29058594 -407.3371582 240.34960938 C-410.48463652 224.67747206 -411.34431102 209.18934308 -411.30859375 193.2421875 C-411.30771759 192.28096985 -411.30684143 191.3197522 -411.30593872 190.32940674 C-411.19195677 152.22946 -403.09821802 115.61453363 -385.93359375 81.4921875 C-385.55299805 80.73373535 -385.17240234 79.9752832 -384.78027344 79.19384766 C-372.56989419 55.03979721 -356.52657205 34.10405035 -337.93359375 14.4921875 C-336.86625 13.36103516 -336.86625 13.36103516 -335.77734375 12.20703125 C-330.55031899 6.81933974 -324.81683677 2.1429725 -318.93359375 -2.5078125 C-317.94488281 -3.301875 -316.95617187 -4.0959375 -315.9375 -4.9140625 C-287.57458625 -27.29279095 -254.87846283 -42.62198301 -219.93359375 -51.5078125 C-218.74121094 -51.81332031 -217.54882812 -52.11882813 -216.3203125 -52.43359375 C-212.87062259 -53.23920996 -209.42267815 -53.89466796 -205.93359375 -54.5078125 C-204.88461914 -54.71083984 -204.88461914 -54.71083984 -203.81445312 -54.91796875 C-132.59878829 -68.32753414 -54.8661818 -46.9029144 0 0 Z " fill="#F6DE1D" transform="translate(410.93359375,57.5078125)"/>
<path d="M0 0 C7.08378372 5.30695425 11.67987179 10.77732643 15.3515625 18.76171875 C11.96083829 21.06101582 8.56313512 23.3497851 5.1640625 25.63671875 C4.20435547 26.28769531 3.24464844 26.93867188 2.25585938 27.609375 C1.32451172 28.23457031 0.39316406 28.85976562 -0.56640625 29.50390625 C-1.42000732 30.07995605 -2.2736084 30.65600586 -3.15307617 31.24951172 C-5.59259029 32.72787494 -7.97338073 33.78554298 -10.6484375 34.76171875 C-11.17630859 33.85679687 -11.17630859 33.85679687 -11.71484375 32.93359375 C-14.88483114 27.80202147 -17.61643576 23.43109193 -23.6484375 21.76171875 C-30.5179679 20.95684189 -36.68673018 21.08321849 -42.6484375 24.76171875 C-45.66599252 27.87661425 -45.94699432 30.94805524 -46.2109375 35.13671875 C-46.02450058 39.93264784 -45.29432767 42.77789372 -41.84375 46.15625 C-34.94584033 51.20080671 -26.73897997 54.29355322 -18.94799805 57.69360352 C-3.10014474 64.62398973 12.74569935 71.88403203 21.3515625 87.76171875 C21.76535156 88.51324219 22.17914063 89.26476562 22.60546875 90.0390625 C27.44146029 100.70520412 27.08237998 115.49156103 23.7265625 126.57421875 C19.0255139 138.12209075 9.86442374 146.6356267 -1.3671875 151.80078125 C-16.56951376 158.20450087 -38.5950797 158.6656803 -54.2109375 153.69921875 C-56.38743217 152.79024186 -58.53769752 151.81440332 -60.6484375 150.76171875 C-62.19917969 150.0346875 -62.19917969 150.0346875 -63.78125 149.29296875 C-69.62240944 146.2454073 -74.40044165 142.46063792 -79.0859375 137.88671875 C-79.57022217 137.41741943 -80.05450684 136.94812012 -80.5534668 136.46459961 C-84.50452544 132.39670674 -87.0738842 127.78766106 -89.6484375 122.76171875 C-86.10877016 120.65417513 -82.56635635 118.55129103 -79.0234375 116.44921875 C-78.02441406 115.85431641 -77.02539062 115.25941406 -75.99609375 114.64648438 C-71.28270396 111.85278645 -66.60376091 109.10408152 -61.6484375 106.76171875 C-60.68604298 108.00859467 -59.72869741 109.25936844 -58.7734375 110.51171875 C-57.97292969 111.55585938 -57.97292969 111.55585938 -57.15625 112.62109375 C-55.6484375 114.76171875 -55.6484375 114.76171875 -54.703125 116.90234375 C-53.35612404 119.27705655 -52.14083152 119.7289588 -49.6484375 120.76171875 C-49.00003906 121.10332031 -48.35164063 121.44492187 -47.68359375 121.796875 C-46.70712891 122.30541016 -46.70712891 122.30541016 -45.7109375 122.82421875 C-45.06253906 123.16582031 -44.41414063 123.50742187 -43.74609375 123.859375 C-35.41992398 127.44102345 -24.871632 126.77552395 -16.55078125 123.61328125 C-15.92300781 123.33226562 -15.29523438 123.05125 -14.6484375 122.76171875 C-13.94847656 122.50132812 -13.24851562 122.2409375 -12.52734375 121.97265625 C-9.90341603 120.28155938 -9.4893606 118.7326958 -8.6484375 115.76171875 C-8.12677447 111.04642693 -8.07872167 106.47086624 -9.5859375 101.94921875 C-16.16789777 94.9683518 -25.29621948 91.49358459 -33.9609375 87.82421875 C-51.44294425 80.40492977 -68.74873442 72.31391026 -76.45556641 53.82543945 C-80.4529816 43.12172491 -80.74336966 28.74161608 -76.7109375 18.01171875 C-70.10371364 5.09506141 -58.97066975 -2.70147579 -45.5703125 -7.29296875 C-30.52956568 -11.49628845 -12.92991934 -8.36022472 0 0 Z " fill="#010100" transform="translate(358.6484375,221.23828125)"/>
<path d="M0 0 C10.89 0 21.78 0 33 0 C33.04523225 15.60373563 33.08203876 31.20741889 33.10362434 46.8112011 C33.11391547 54.05710073 33.1279342 61.30295659 33.15087891 68.54882812 C33.17087929 74.86792822 33.18373214 81.1869966 33.18817699 87.50612748 C33.19077318 90.84880856 33.19789592 94.19132741 33.21146011 97.53399277 C33.22603396 101.27515737 33.22797545 105.01613567 33.22705078 108.75732422 C33.23424133 109.85281082 33.24143188 110.94829742 33.24884033 112.07698059 C33.21517954 124.71031837 30.8960991 138.86384488 21.86328125 148.41015625 C10.27467109 158.29813179 -0.70004373 161.18690178 -15.5625 161.3125 C-16.67947266 161.34150391 -17.79644531 161.37050781 -18.94726562 161.40039062 C-33.22098539 161.50796069 -45.45676704 156.49639558 -55.8125 146.6875 C-59.6474609 142.6618128 -63.14557697 138.30748661 -65 133 C-63.69552567 129.08657702 -62.30794137 128.78360407 -58.72265625 126.86328125 C-57.11680664 125.99799805 -57.11680664 125.99799805 -55.47851562 125.11523438 C-54.35123047 124.52033203 -53.22394531 123.92542969 -52.0625 123.3125 C-50.93908203 122.70599609 -49.81566406 122.09949219 -48.65820312 121.47460938 C-40.28781461 117 -40.28781461 117 -38 117 C-36.703125 119.01171875 -36.703125 119.01171875 -35.25 121.6875 C-32.10202137 127.1214191 -29.14756851 130.9508105 -23 133 C-16.35024547 133.61418692 -10.9721394 133.03845689 -5 130 C-1.53098402 125.63575409 -0.88135845 121.37565006 -0.84178162 115.925354 C-0.8319928 114.90174271 -0.82220398 113.87813141 -0.81211853 112.82350159 C-0.80636307 111.70644333 -0.8006076 110.58938507 -0.79467773 109.43847656 C-0.78477814 108.25771042 -0.77487854 107.07694427 -0.76467896 105.86039734 C-0.7385169 102.62727892 -0.71664423 99.3941656 -0.69667697 96.16100407 C-0.67478534 92.7803846 -0.64741222 89.39980962 -0.62062073 86.01922607 C-0.57073675 79.61971836 -0.52578202 73.22018589 -0.48259836 66.82062984 C-0.43318924 59.53406839 -0.37828476 52.24755159 -0.32291877 44.96103334 C-0.20916467 29.9740624 -0.10303679 14.98704918 0 0 Z " fill="#010100" transform="translate(219,214)"/>
</svg>
