<?xml version="1.0" encoding="UTF-8"?>
<svg version="1.1" xmlns="http://www.w3.org/2000/svg" width="500" height="500">
<path d="M0 0 C2.38098762 2.13817762 4.72462058 4.31132019 7.06640625 6.4921875 C8.41646789 7.66360204 9.77048139 8.8304817 11.12890625 9.9921875 C19.30467088 17.15008585 26.32403632 24.98659911 33.06640625 33.4921875 C33.94046748 34.56456793 34.81549915 35.63615798 35.69140625 36.70703125 C61.72165356 68.80339311 78.41334549 106.96507794 86.06640625 147.4921875 C86.23011719 148.31219238 86.39382813 149.13219727 86.5625 149.97705078 C91.85669079 177.49262295 91.74199609 210.05762025 86.06640625 237.4921875 C85.86772949 238.46994141 85.66905273 239.44769531 85.46435547 240.45507812 C77.35107371 279.22866434 61.79653467 315.37570723 37.06640625 346.4921875 C36.36257813 347.38808594 35.65875 348.28398437 34.93359375 349.20703125 C-7.14551944 401.76821744 -67.48263293 433.93531477 -134.16894531 442.02270508 C-138.92285994 442.54017812 -143.63875314 442.68648233 -148.41796875 442.73046875 C-149.74609085 442.74522751 -149.74609085 442.74522751 -151.1010437 442.76028442 C-204.29862534 443.22887048 -255.40469853 432.02802989 -299.93359375 401.4921875 C-300.54235352 401.07727051 -301.15111328 400.66235352 -301.77832031 400.23486328 C-314.73809233 391.34083504 -326.53785043 381.2958939 -337.93359375 370.4921875 C-339.06474609 369.42484375 -339.06474609 369.42484375 -340.21875 368.3359375 C-345.60768051 363.10771068 -350.26561685 357.36309524 -354.93359375 351.4921875 C-355.80914299 350.41865639 -356.68546792 349.34575753 -357.5625 348.2734375 C-364.72047585 339.44526728 -371.02874082 330.20012936 -376.93359375 320.4921875 C-377.36027344 319.7914209 -377.78695312 319.0906543 -378.2265625 318.36865234 C-392.16838705 295.14478999 -401.11488563 269.53259616 -406.74609375 243.1171875 C-406.94114502 242.20388672 -407.13619629 241.29058594 -407.3371582 240.34960938 C-410.48463652 224.67747206 -411.34431102 209.18934308 -411.30859375 193.2421875 C-411.30771759 192.28096985 -411.30684143 191.3197522 -411.30593872 190.32940674 C-411.19195677 152.22946 -403.09821802 115.61453363 -385.93359375 81.4921875 C-385.55299805 80.73373535 -385.17240234 79.9752832 -384.78027344 79.19384766 C-372.56989419 55.03979721 -356.52657205 34.10405035 -337.93359375 14.4921875 C-336.86625 13.36103516 -336.86625 13.36103516 -335.77734375 12.20703125 C-330.55031899 6.81933974 -324.81683677 2.1429725 -318.93359375 -2.5078125 C-317.94488281 -3.301875 -316.95617187 -4.0959375 -315.9375 -4.9140625 C-287.57458625 -27.29279095 -254.87846283 -42.62198301 -219.93359375 -51.5078125 C-218.74121094 -51.81332031 -217.54882812 -52.11882813 -216.3203125 -52.43359375 C-212.87062259 -53.23920996 -209.42267815 -53.89466796 -205.93359375 -54.5078125 C-204.88461914 -54.71083984 -204.88461914 -54.71083984 -203.81445312 -54.91796875 C-132.59878829 -68.32753414 -54.8661818 -46.9029144 0 0 Z " fill="#0D1B2A" transform="translate(410.93359375,57.5078125)"/>
<path d="M0 0 C7.34673844 4.15670727 13.70015222 9.7947405 20.11523438 15.23730469 C21.92498154 16.74635977 21.92498154 16.74635977 24.75 18.5625 C25.61625 17.61375 26.4825 16.665 27.375 15.6875 C37.53517028 5.56838091 53.77084978 -6.6764097 68.5625 -6.75 C76.65251965 -6.55535291 83.01834234 -4.2994226 88.75 1.5625 C93.52878596 7.98731224 95.99930123 14.03703699 96.015625 22.140625 C96.01820313 23.38457031 96.02078125 24.62851563 96.0234375 25.91015625 C96.01570312 27.19792969 96.00796875 28.48570312 96 29.8125 C96.00773438 31.08480469 96.01546875 32.35710937 96.0234375 33.66796875 C96.01006244 40.14818354 95.72346353 46.19632113 94.17871094 52.50292969 C93.61414172 54.86455737 93.61414172 54.86455737 93.75 58.5625 C94.31807373 58.76294922 94.88614746 58.96339844 95.47143555 59.16992188 C129.63885006 71.35456136 129.63885006 71.35456136 138.75 87.375 C141.58780349 93.6780125 142.00917378 99.55001322 139.93359375 106.1640625 C132.98880175 121.79589396 117.89797879 128.5089281 102.89282227 134.43017578 C99.16103182 135.84370191 96.8411348 136.5625 92.75 136.5625 C92.88277344 137.10777344 93.01554688 137.65304687 93.15234375 138.21484375 C93.32894531 138.96894531 93.50554687 139.72304688 93.6875 140.5 C93.86152344 141.23089844 94.03554688 141.96179688 94.21484375 142.71484375 C95.66773949 150.44594589 95.95853547 158.14765549 96 166 C96.0309375 167.45889648 96.0309375 167.45889648 96.0625 168.94726562 C96.11462254 178.70069504 94.07415743 187.8880495 87.75 195.5625 C81.82994325 201.12848637 74.73397194 203.20396817 66.67578125 202.99609375 C49.97791724 200.52151043 36.49975343 188.84132143 24.75 177.5625 C20.68549433 180.51359055 16.78438109 183.49197885 13.125 186.9375 C3.25623557 195.66458384 -11.34182972 203.65714648 -24.8046875 203.0078125 C-31.81797913 201.7306316 -37.6723353 198.15180056 -42.00390625 192.51953125 C-51.22729955 178.03388847 -49.36548327 159.79708649 -46.00390625 143.6875 C-45.25 140.5625 -45.25 140.5625 -44.25 137.5625 C-45.14525391 137.376875 -45.14525391 137.376875 -46.05859375 137.1875 C-62.24531584 133.33924512 -78.81184795 125.24384271 -88.91015625 111.73828125 C-92.90406773 105.25254162 -92.97304313 99.01888231 -92.25 91.5625 C-91.36681082 88.5064647 -90.08492968 86.14860402 -88.25 83.5625 C-87.8375 82.97082031 -87.425 82.37914062 -87 81.76953125 C-77.33181717 69.32723915 -59.33952346 61.69121329 -44.25 58.5625 C-44.45496094 57.86125 -44.65992188 57.16 -44.87109375 56.4375 C-45.14050781 55.48875 -45.40992188 54.54 -45.6875 53.5625 C-45.95433594 52.634375 -46.22117188 51.70625 -46.49609375 50.75 C-49.71592395 37.13662465 -50.73492743 18.88189872 -44.03125 6.26953125 C-32.74712268 -10.43724614 -16.04484934 -7.96228655 0 0 Z " fill="#5FD7F7" transform="translate(225.25,152.4375)"/>
<path d="M0 0 C1.16595703 0.00193359 2.33191406 0.00386719 3.53320312 0.00585938 C4.74298828 0.01810547 5.95277344 0.03035156 7.19921875 0.04296875 C8.39740234 0.04361328 9.59558594 0.04425781 10.83007812 0.04492188 C14.18508646 0.06155828 17.53324295 0.13123 20.88671875 0.23046875 C21.7065625 0.23941162 22.52640625 0.24835449 23.37109375 0.25756836 C27.15699027 0.4624615 28.64517997 0.97594824 31.28515625 3.7578125 C32.26355469 5.44583984 32.26355469 5.44583984 33.26171875 7.16796875 C33.62185059 7.77825928 33.98198242 8.3885498 34.35302734 9.01733398 C35.132951 10.35146653 35.89953047 11.69346772 36.65429688 13.04199219 C37.97117576 15.38044351 39.33998989 17.68348893 40.71484375 19.98828125 C41.6495672 21.5884257 42.5818978 23.18997056 43.51171875 24.79296875 C43.96208496 25.55407959 44.41245117 26.31519043 44.87646484 27.09936523 C45.28461426 27.82454346 45.69276367 28.54972168 46.11328125 29.296875 C46.66363037 30.25509155 46.66363037 30.25509155 47.22509766 31.23266602 C48.35739761 34.6517105 47.31279027 37.2855272 45.87451172 40.4753418 C45.46346191 41.22340088 45.05241211 41.97145996 44.62890625 42.7421875 C44.17112793 43.57838623 43.71334961 44.41458496 43.24169922 45.27612305 C42.75330566 46.14793213 42.26491211 47.01974121 41.76171875 47.91796875 C41.01946045 49.25565308 41.01946045 49.25565308 40.26220703 50.62036133 C32.28095953 64.83622797 32.28095953 64.83622797 27.88671875 69.23046875 C-3.52654184 73.05230679 -3.52654184 73.05230679 -12.97363281 67.57080078 C-17.15450895 63.32432308 -19.28795664 58.25676701 -21.21191406 52.68457031 C-22.52078683 49.12097631 -24.43910946 46.14912173 -26.42578125 42.91796875 C-28.22541575 39.77594954 -29.13464151 38.00905022 -29.03515625 34.3828125 C-27.84640991 30.31790447 -26.07661266 26.81237159 -24.05078125 23.10546875 C-23.4489502 21.9925647 -23.4489502 21.9925647 -22.83496094 20.85717773 C-11.3730596 -0.04433433 -11.3730596 -0.04433433 0 0 Z " fill="#0F1F2F" transform="translate(240.11328125,215.76953125)"/>
<path d="M0 0 C3.27421382 13.74000442 5.6382864 28.51066575 0 42 C-1.85922359 44.74539558 -2.92572734 45.37585595 -6 47 C-14.35434409 48.44040415 -21.93494796 44.56941969 -28.8984375 40.16796875 C-34.96300646 35.86161516 -40.55260616 31.05733354 -46 26 C-43.02500234 21.39650837 -39.79329101 17.09450357 -36.375 12.8125 C-32.54898565 8.00974157 -32.54898565 8.00974157 -29 3 C-26.43383789 2.27636719 -26.43383789 2.27636719 -23.22265625 1.796875 C-21.49305664 1.53390625 -21.49305664 1.53390625 -19.72851562 1.265625 C-18.51873047 1.09546875 -17.30894531 0.9253125 -16.0625 0.75 C-14.85658203 0.564375 -13.65066406 0.37875 -12.40820312 0.1875 C-3.4145797 -1.13819323 -3.4145797 -1.13819323 0 0 Z " fill="#0E1E2D" transform="translate(305,294)"/>
<path d="M0 0 C5.61956705 5.55831836 5.97787007 12.62750849 6.0625 20.1875 C5.92499301 40.82500699 5.92499301 40.82500699 0.6875 46.0625 C-8.20840652 46.23707909 -23.00472544 45.80423975 -29.8203125 39.46875 C-32.00329324 36.43292016 -33.65206165 33.4079152 -35.3125 30.0625 C-36.78783546 28.1105957 -38.30705558 26.1908225 -39.875 24.3125 C-40.53628906 23.49265625 -41.19757813 22.6728125 -41.87890625 21.828125 C-42.35199219 21.24546875 -42.82507813 20.6628125 -43.3125 20.0625 C-33.65232163 10.09070298 -15.19957373 -8.89031671 0 0 Z " fill="#0E1E2D" transform="translate(302.3125,161.9375)"/>
<path d="M0 0 C23.73712837 -0.30858267 23.73712837 -0.30858267 30.9140625 5.26171875 C33.1788001 8.06663228 35.08139524 10.94961223 37 14 C38.63240983 16.1134864 40.34430218 18.14101785 42.0625 20.1875 C43.375 21.79166667 44.6875 23.39583333 46 25 C39.67166352 31.34997182 33.66853808 36.83697249 25.875 41.3125 C24.99630249 41.81873901 24.99630249 41.81873901 24.09985352 42.33520508 C18.10877214 45.67390126 12.9124213 47.62840194 6 47 C3.01254085 45.95786309 1.54920279 44.91274915 -0.08764648 42.19238281 C-2.92671799 36.21242497 -3.56853395 31.25981639 -3.375 24.6875 C-3.36138428 23.77121826 -3.34776855 22.85493652 -3.33374023 21.91088867 C-2.96215655 5.9243131 -2.96215655 5.9243131 0 0 Z " fill="#0E1D2C" transform="translate(194,294)"/>
<path d="M0 0 C1.40966797 2.14550781 1.40966797 2.14550781 2.4921875 4.953125 C3.08386719 6.47099609 3.08386719 6.47099609 3.6875 8.01953125 C4.2753125 9.61861328 4.2753125 9.61861328 4.875 11.25 C5.29007813 12.30058594 5.70515625 13.35117188 6.1328125 14.43359375 C9.03048325 22.05446783 9.06644178 25.75547121 5.93359375 33.30078125 C5.53076172 34.27724609 5.12792969 35.25371094 4.71289062 36.25976562 C4.29201172 37.26716797 3.87113281 38.27457031 3.4375 39.3125 C3.01275391 40.33923828 2.58800781 41.36597656 2.15039062 42.42382812 C1.10429072 44.95092341 0.05404084 47.47620894 -1 50 C-6.86685948 49.48983831 -11.58215435 48.29326919 -16.9375 45.875 C-17.63262695 45.5658667 -18.32775391 45.2567334 -19.04394531 44.93823242 C-24.65239617 42.35057223 -29.46875218 39.22588112 -34 35 C-34.71671875 34.33355469 -35.4334375 33.66710937 -36.171875 32.98046875 C-39.0769477 29.83330666 -39.55357964 26.40593309 -39.4453125 22.17578125 C-38.259405 16.38147881 -33.54453294 13.04062907 -28.875 9.89453125 C-8.11055872 -2.79566988 -8.11055872 -2.79566988 0 0 Z " fill="#0E1D2C" transform="translate(186,226)"/>
<path d="M0 0 C12.84520144 4.1242726 22.29643422 11.89516487 32 21 C30.62139787 23.95804379 29.01822808 26.4534121 27.03125 29.0390625 C26.46019531 29.78414062 25.88914063 30.52921875 25.30078125 31.296875 C24.70652344 32.06515625 24.11226562 32.8334375 23.5 33.625 C22.90574219 34.40101563 22.31148437 35.17703125 21.69921875 35.9765625 C15.60228334 43.90395482 15.60228334 43.90395482 11.47265625 44.5625 C10.00337699 44.71592411 8.53324351 44.8613132 7.0625 45 C0.30549902 45.70810109 -6.33681823 46.6472158 -13 48 C-14.94434716 38.96110039 -16.30922334 30.13946009 -16.375 20.875 C-16.38853516 20.09471436 -16.40207031 19.31442871 -16.41601562 18.51049805 C-16.37049512 12.63645643 -15.29430514 7.99973804 -11.640625 3.22265625 C-7.60449455 -0.14456494 -5.14255143 -0.82944378 0 0 Z " fill="#0D1D2C" transform="translate(207,160)"/>
<path d="M0 0 C13.22095905 2.01675647 28.11887445 8.33941726 36.75 18.9375 C38.52588438 23.28841673 38.41659417 26.53890234 37 31 C31.73765697 41.52468607 16.31181177 46.5782642 5.9609375 50.28515625 C2.92391495 51.01836882 1.8159965 51.19855698 -1 50 C-3.10801717 46.7115091 -4.37519738 42.99950226 -5.8125 39.375 C-6.23208984 38.38886719 -6.65167969 37.40273438 -7.08398438 36.38671875 C-11.13083309 26.39960281 -8.97881595 20.23815322 -5 10.625 C-4.63132812 9.71105469 -4.26265625 8.79710937 -3.8828125 7.85546875 C-1.15472274 1.15472274 -1.15472274 1.15472274 0 0 Z " fill="#0D1C2C" transform="translate(314,225)"/>
<path d="M0 0 C5.13811362 3.05245228 9.35153109 7.87506238 11.5625 13.4375 C12.45923946 20.57365823 12.46127975 26.88871017 8.0546875 32.7890625 C3.63197996 37.67488078 -0.77561742 40.94418939 -7.453125 41.84375 C-14.42909771 42.04595211 -19.04037313 41.49767829 -24.62890625 37.16015625 C-29.92612128 32.11464474 -31.61370962 27.0811233 -31.875 19.8125 C-31.80914463 12.72207219 -30.41631224 8.4912621 -25.4375 3.4375 C-18.64849392 -3.08979836 -8.51120633 -3.75734637 0 0 Z " fill="#60D8F8" transform="translate(259.4375,230.5625)"/>
<path d="M0 0 C6.27 0 12.54 0 19 0 C12.97321429 8.16964286 12.97321429 8.16964286 10 11 C6.38737754 9.79579251 5.57513335 8.4978706 3.3125 5.5 C2.68988281 4.6853125 2.06726563 3.870625 1.42578125 3.03125 C0 1 0 1 0 0 Z " fill="#152D3E" transform="translate(240,298)"/>
<path d="M0 0 C2.5 2.5 2.5 2.5 5 5 C5.763125 5.721875 6.52625 6.44375 7.3125 7.1875 C9 9 9 9 9 11 C3.06 11 -2.88 11 -9 11 C-2.97321429 2.83035714 -2.97321429 2.83035714 0 0 Z " fill="#152D3E" transform="translate(249,192)"/>
<path d="M0 0 C2.02196167 2.02196167 2.67551358 3.25864486 3.6875 5.875 C3.95949219 6.55304688 4.23148437 7.23109375 4.51171875 7.9296875 C5 10 5 10 4 14 C-1.94 14.495 -1.94 14.495 -8 15 C-6.47489648 11.18724121 -4.99242873 8.13982945 -2.875 4.6875 C-2.33617187 3.80449219 -1.79734375 2.92148437 -1.2421875 2.01171875 C-0.83226562 1.34785156 -0.42234375 0.68398438 0 0 Z " fill="#112636" transform="translate(295,267)"/>
<path d="M0 0 C2.9225738 3.65321725 4.79880946 6.24751971 6.75 10.3125 C7.39195312 11.63701172 7.39195312 11.63701172 8.046875 12.98828125 C8.36140625 13.65214844 8.6759375 14.31601562 9 15 C7.22844346 14.88570603 5.45773771 14.75816963 3.6875 14.625 C2.20830078 14.52058594 2.20830078 14.52058594 0.69921875 14.4140625 C-2 14 -2 14 -5 12 C-3.35 8.04 -1.7 4.08 0 0 Z " fill="#112535" transform="translate(203,267)"/>
<path d="M0 0 C-0.92994117 1.94113934 -1.8692453 3.8777951 -2.8125 5.8125 C-3.33457031 6.89144531 -3.85664063 7.97039062 -4.39453125 9.08203125 C-5.76110117 11.56579702 -6.87340101 13.1799378 -9 15 C-9.67528223 13.42032193 -10.33989694 11.83608097 -11 10.25 C-11.37125 9.36828125 -11.7425 8.4865625 -12.125 7.578125 C-13 5 -13 5 -13 1 C-8.60563789 0.14256349 -4.47427924 -0.08948558 0 0 Z " fill="#122737" transform="translate(212,219)"/>
<path d="M0 0 C1.79206547 0.14084796 3.58364917 0.28783701 5.375 0.4375 C6.87160156 0.55931641 6.87160156 0.55931641 8.3984375 0.68359375 C11 1 11 1 13 2 C12.55005243 3.79379098 12.08975857 5.58498928 11.625 7.375 C11.36976563 8.37273437 11.11453125 9.37046875 10.8515625 10.3984375 C10 13 10 13 8 15 C6.66121428 12.8782637 5.32884524 10.75294812 4 8.625 C3.6184375 8.02171875 3.236875 7.4184375 2.84375 6.796875 C0 2.2265625 0 2.2265625 0 0 Z " fill="#102332" transform="translate(287,219)"/>
</svg>
