<?xml version="1.0" encoding="UTF-8"?>
<svg version="1.1" xmlns="http://www.w3.org/2000/svg" width="500" height="500">
<path d="M0 0 C2.38098762 2.13817762 4.72462058 4.31132019 7.06640625 6.4921875 C8.41646789 7.66360204 9.77048139 8.8304817 11.12890625 9.9921875 C19.30467088 17.15008585 26.32403632 24.98659911 33.06640625 33.4921875 C33.94046748 34.56456793 34.81549915 35.63615798 35.69140625 36.70703125 C61.72165356 68.80339311 78.41334549 106.96507794 86.06640625 147.4921875 C86.23011719 148.31219238 86.39382813 149.13219727 86.5625 149.97705078 C91.85669079 177.49262295 91.74199609 210.05762025 86.06640625 237.4921875 C85.86772949 238.46994141 85.66905273 239.44769531 85.46435547 240.45507812 C77.35107371 279.22866434 61.79653467 315.37570723 37.06640625 346.4921875 C36.36257813 347.38808594 35.65875 348.28398437 34.93359375 349.20703125 C-7.14551944 401.76821744 -67.48263293 433.93531477 -134.16894531 442.02270508 C-138.92285994 442.54017812 -143.63875314 442.68648233 -148.41796875 442.73046875 C-149.74609085 442.74522751 -149.74609085 442.74522751 -151.1010437 442.76028442 C-204.29862534 443.22887048 -255.40469853 432.02802989 -299.93359375 401.4921875 C-300.54235352 401.07727051 -301.15111328 400.66235352 -301.77832031 400.23486328 C-314.73809233 391.34083504 -326.53785043 381.2958939 -337.93359375 370.4921875 C-339.06474609 369.42484375 -339.06474609 369.42484375 -340.21875 368.3359375 C-345.60768051 363.10771068 -350.26561685 357.36309524 -354.93359375 351.4921875 C-355.80914299 350.41865639 -356.68546792 349.34575753 -357.5625 348.2734375 C-364.72047585 339.44526728 -371.02874082 330.20012936 -376.93359375 320.4921875 C-377.36027344 319.7914209 -377.78695312 319.0906543 -378.2265625 318.36865234 C-392.16838705 295.14478999 -401.11488563 269.53259616 -406.74609375 243.1171875 C-406.94114502 242.20388672 -407.13619629 241.29058594 -407.3371582 240.34960938 C-410.48463652 224.67747206 -411.34431102 209.18934308 -411.30859375 193.2421875 C-411.30771759 192.28096985 -411.30684143 191.3197522 -411.30593872 190.32940674 C-411.19195677 152.22946 -403.09821802 115.61453363 -385.93359375 81.4921875 C-385.55299805 80.73373535 -385.17240234 79.9752832 -384.78027344 79.19384766 C-372.56989419 55.03979721 -356.52657205 34.10405035 -337.93359375 14.4921875 C-336.86625 13.36103516 -336.86625 13.36103516 -335.77734375 12.20703125 C-330.55031899 6.81933974 -324.81683677 2.1429725 -318.93359375 -2.5078125 C-317.94488281 -3.301875 -316.95617187 -4.0959375 -315.9375 -4.9140625 C-287.57458625 -27.29279095 -254.87846283 -42.62198301 -219.93359375 -51.5078125 C-218.74121094 -51.81332031 -217.54882812 -52.11882813 -216.3203125 -52.43359375 C-212.87062259 -53.23920996 -209.42267815 -53.89466796 -205.93359375 -54.5078125 C-204.88461914 -54.71083984 -204.88461914 -54.71083984 -203.81445312 -54.91796875 C-132.59878829 -68.32753414 -54.8661818 -46.9029144 0 0 Z " fill="#007ACC" transform="translate(410.93359375,57.5078125)"/>
<path d="M0 0 C6.98214174 4.74335837 13.46125067 10.75439314 16.25 18.875 C13.39846163 20.79559894 10.54330053 22.71074555 7.6875 24.625 C6.88763672 25.16382813 6.08777344 25.70265625 5.26367188 26.2578125 C0.68321266 29.32391581 -3.92618256 32.20733183 -8.75 34.875 C-9.31847656 34.18792969 -9.88695312 33.50085938 -10.47265625 32.79296875 C-17.25436815 24.78286471 -17.25436815 24.78286471 -26.90234375 21.57421875 C-32.55890321 21.23579212 -37.20158301 22.42631763 -41.75 25.875 C-44.79071313 30.15100284 -45.46422036 33.69690238 -44.75 38.875 C-41.89022076 45.27913574 -38.16014571 48.48679586 -31.9375 51.4375 C-31.19121338 51.81334229 -30.44492676 52.18918457 -29.67602539 52.57641602 C-24.7599387 55.01710359 -19.74481873 57.18534968 -14.6875 59.3125 C0.46037038 65.72489221 16.50653657 74.84888939 23.35546875 90.53125 C27.8565142 102.32438218 27.91493465 116.05022315 23.0625 127.734375 C17.32627526 140.26677904 9.02981727 147.01971194 -3.75 151.875 C-12.21465601 154.87750186 -20.19234074 155.36389082 -29.125 155.3125 C-30.34960938 155.33248047 -31.57421875 155.35246094 -32.8359375 155.37304688 C-49.83885349 155.36404109 -65.18857624 149.01263875 -77.51953125 137.28515625 C-81.73049084 132.73495998 -85.77350763 127.80447712 -87.75 121.875 C-86.615625 121.21113281 -85.48125 120.54726563 -84.3125 119.86328125 C-82.79163159 118.97141397 -81.27080024 118.0794835 -79.75 117.1875 C-79.00621094 116.75244141 -78.26242187 116.31738281 -77.49609375 115.86914062 C-76.75488281 115.43408203 -76.01367188 114.99902344 -75.25 114.55078125 C-74.50363281 114.11588379 -73.75726563 113.68098633 -72.98828125 113.23291016 C-71.47940248 112.31751054 -69.99704824 111.35709579 -68.54296875 110.35693359 C-67.84816406 109.8820752 -67.15335937 109.4072168 -66.4375 108.91796875 C-65.51517578 108.25897583 -65.51517578 108.25897583 -64.57421875 107.58666992 C-62.75 106.875 -62.75 106.875 -60.61767578 107.62524414 C-58.31726306 109.16456607 -57.17402766 110.83648677 -55.625 113.125 C-50.46241406 120.00475509 -43.23920952 124.33150736 -34.75 125.875 C-26.7303208 126.71836971 -18.53922237 125.27226313 -11.6875 120.9375 C-8.52942217 117.57567522 -7.42384275 114.6620894 -7.25 110.0625 C-7.40527583 105.45148304 -8.2126452 102.83871892 -11.49609375 99.578125 C-19.74142455 93.34768439 -29.60762479 89.45684056 -39 85.3125 C-54.02563619 78.64507632 -68.43634785 70.47244932 -74.84765625 54.48046875 C-75.14542969 53.62066406 -75.44320313 52.76085937 -75.75 51.875 C-76.11222656 50.9675 -76.47445313 50.06 -76.84765625 49.125 C-79.75125593 38.66701327 -79.00499119 25.3925537 -73.75 15.875 C-71.96184934 12.98407054 -69.9920207 10.42645213 -67.75 7.875 C-67.24855469 7.26914063 -66.74710937 6.66328125 -66.23046875 6.0390625 C-50.16241272 -11.86645979 -19.51366397 -11.33829651 0 0 Z " fill="#FCFDFE" transform="translate(360.75,233.125)"/>
<path d="M0 0 C40.92 0 81.84 0 124 0 C124 9.24 124 18.48 124 28 C108.82 28 93.64 28 78 28 C78 71.23 78 114.46 78 159 C67.44 159 56.88 159 46 159 C46 115.77 46 72.54 46 28 C30.82 28 15.64 28 0 28 C0 18.76 0 9.52 0 0 Z " fill="#FEFEFE" transform="translate(140,228)"/>
</svg>
